<svg width="16" height="20" viewBox="0 0 16 20" fill="none" xmlns="http://www.w3.org/2000/svg">
<path fill-rule="evenodd" clip-rule="evenodd" d="M12.5415 9.3375C13.4769 8.85 14.0677 8 13.9323 6.575C13.7477 4.625 12.0985 3.975 10.0062 3.7875V1.25H8.39386V3.75H7.10155V1.25H5.48924V3.75C5.13232 3.75 4.80001 3.7625 4.45539 3.7625H2.46155V5.55C2.46155 5.55 3.40924 5.525 3.38462 5.55C4.03693 5.55 4.25847 5.9375 4.32001 6.275V9.35V13.65C4.29539 13.8625 4.17232 14.2 3.71693 14.2C3.74155 14.2125 2.79386 14.2 2.79386 14.2L2.47386 16.2375H5.47693V18.7375H7.08924V16.2375H8.38155V18.7375H9.99385V16.175C12.7139 16.0125 14.6092 15.325 14.8554 12.725C15.0523 10.6375 14.08 9.7 12.5415 9.325V9.3375ZM7.12616 5.6625H7.45847C8.59078 5.6375 10.9046 5.575 10.9046 7.3125C10.9046 9.0125 8.49232 8.975 7.38462 8.95H7.11386V5.675L7.12616 5.6625ZM11.6554 12.4C11.6554 14.275 8.76309 14.225 7.43386 14.2125H7.11386V10.6H7.5077C8.86155 10.5625 11.6431 10.5 11.6431 12.4125L11.6554 12.4Z" fill="#99A1AF"/>
</svg>
