<svg width="74" height="33" viewBox="0 0 74 33" fill="none" xmlns="http://www.w3.org/2000/svg">
<path d="M29.7645 13.3591H20.4262V16.957H15.4298V22.2259H20.4262V21.8229H29.7645V13.3591Z" fill="url(#paint0_linear_271_513)"/>
<path d="M43.8879 13.3591H53.2262V16.957H59.0799V22.2259H53.2262V21.8229H43.8879V13.3591Z" fill="url(#paint1_linear_271_513)"/>
<path d="M36.4305 27.7307H26.3917V32.8129H36.4305V27.7307Z" fill="url(#paint2_linear_271_513)"/>
<path d="M46.9391 27.7307H36.9003V32.8129H46.9391V27.7307Z" fill="url(#paint3_linear_271_513)"/>
<path d="M25.9228 27.7307H20.4194V32.8129H25.9228V27.7307Z" fill="url(#paint4_linear_271_513)"/>
<path d="M52.9322 27.7307H47.4104V32.8129H52.9322V27.7307Z" fill="url(#paint5_linear_271_513)"/>
<path d="M20.4194 22.226V27.3278H31.0206V22.226" fill="url(#paint6_linear_271_513)"/>
<path d="M31.3798 22.226V27.3278H41.9717V22.226" fill="url(#paint7_linear_271_513)"/>
<path d="M42.3312 22.226V27.3278H52.9324V22.226" fill="url(#paint8_linear_271_513)"/>
<path d="M8.22283 11.0983C3.68737 11.0983 0 15.0303 0 19.8667C0 24.713 3.68737 28.6352 8.22283 28.6352C12.7675 28.6352 16.4457 24.7032 16.4457 19.8667C16.4549 15.0303 12.7675 11.0983 8.22283 11.0983ZM8.25049 22.4619C9.37514 22.4619 10.3154 21.6558 10.6012 20.5549H12.0485C11.9747 21.0169 11.8272 21.4494 11.6244 21.8426C11.5507 21.9802 11.4677 22.1178 11.3848 22.2456C11.3294 22.3243 11.2741 22.4029 11.2096 22.4816C11.0805 22.6487 10.9423 22.7961 10.7948 22.9436C10.7395 23.0026 10.6749 23.0517 10.6104 23.1009C10.4906 23.1992 10.3523 23.2975 10.2232 23.3859C10.1587 23.4253 10.085 23.4744 10.0204 23.5137C9.94668 23.553 9.88215 23.5924 9.8084 23.6219V25.4109H8.50861V23.9659C8.42564 23.9757 8.33346 23.9757 8.25049 23.9757C8.18596 23.9757 8.12143 23.9757 8.0569 23.9659C8.02003 23.9659 7.98316 23.9659 7.93706 23.9561V25.4109H6.64648V23.5924C6.44368 23.4941 6.24087 23.3663 6.0565 23.2287C5.94588 23.15 5.83526 23.0615 5.73386 22.9632C4.91342 22.2063 4.39719 21.0955 4.39719 19.8569C4.39719 18.2055 5.31903 16.7703 6.63727 16.1215V14.3127H7.93706V15.7577C7.96472 15.7577 7.99237 15.7577 8.02003 15.7479C8.09378 15.7381 8.17674 15.7381 8.25049 15.7381C8.33346 15.7381 8.42564 15.7381 8.50861 15.7479V14.3029H9.8084V16.0821C10.7763 16.5343 11.5415 17.4092 11.8918 18.4807C11.9655 18.697 12.0208 18.9132 12.0577 19.1491H10.6012C10.5274 18.8542 10.3984 18.5888 10.2417 18.3431C10.1956 18.2743 10.1495 18.2055 10.0942 18.1465C10.0296 18.0678 9.96512 17.9892 9.89137 17.9204C9.82684 17.8516 9.75309 17.7926 9.67935 17.7336C9.64247 17.7041 9.6056 17.6746 9.56872 17.6451C9.19077 17.3896 8.73907 17.2323 8.25971 17.2323C7.66973 17.2323 7.12584 17.4584 6.71101 17.8221C6.64648 17.8712 6.59117 17.9302 6.53586 17.9892C6.09338 18.461 5.82604 19.1098 5.82604 19.8274C5.82604 20.0928 5.86292 20.3583 5.93667 20.604C5.93667 20.604 5.93667 20.604 5.93667 20.6138C5.9551 20.6728 5.97354 20.7318 6.00119 20.7908C6.01963 20.8399 6.03807 20.8891 6.0565 20.9382C6.0565 20.9481 6.06572 20.9579 6.06572 20.9579C6.4529 21.8623 7.28256 22.4619 8.25049 22.4619Z" fill="url(#paint9_linear_271_513)"/>
<path d="M65.4316 11.0983C60.887 11.0983 57.2088 15.0303 57.2088 19.8667C57.2088 24.713 60.8962 28.6352 65.4316 28.6352C69.9763 28.6352 73.6545 24.7032 73.6545 19.8667C73.6545 15.0303 69.9763 11.0983 65.4316 11.0983ZM65.4593 22.4619C66.5839 22.4619 67.5242 21.6558 67.81 20.5549H69.2573C69.1928 20.9382 69.0821 21.3118 68.9254 21.646C68.6673 22.2161 68.2893 22.7175 67.8192 23.1009C67.6348 23.2581 67.432 23.3958 67.22 23.5039C67.1463 23.5432 67.0817 23.5825 67.008 23.612V25.4011H65.7082V23.9561C65.6252 23.9659 65.533 23.9659 65.4501 23.9659C65.3855 23.9659 65.321 23.9659 65.2565 23.9561C65.2196 23.9561 65.1827 23.9561 65.1366 23.9463V25.4011H63.8368V23.5825C63.634 23.4842 63.4312 23.3564 63.2469 23.2188C63.21 23.1893 63.1731 23.1598 63.1363 23.1303C63.0625 23.0714 62.998 23.0124 62.9242 22.9534C62.1038 22.1965 61.5876 21.0857 61.5876 19.8471C61.5876 18.1956 62.5094 16.7604 63.8276 16.1116V14.3029H65.1274V15.7479C65.1551 15.7479 65.1827 15.7479 65.2104 15.7381C65.2841 15.7283 65.3671 15.7283 65.4409 15.7283C65.5238 15.7283 65.616 15.7283 65.699 15.7381V14.2931H67.0172V16.0723C67.9851 16.5245 68.7503 17.3994 69.1006 18.4709C69.1743 18.6871 69.2296 18.9034 69.2665 19.1393H67.8192C67.6994 18.6576 67.4413 18.2349 67.1094 17.9105C67.0449 17.8417 66.9711 17.7828 66.8974 17.7238C66.8605 17.6943 66.8236 17.6648 66.7867 17.6353C66.4088 17.3797 65.9571 17.2224 65.4777 17.2224C64.8877 17.2224 64.3439 17.4485 63.929 17.8122C63.9014 17.8417 63.8737 17.8614 63.8368 17.8909C63.7723 17.9499 63.717 18.0187 63.6617 18.0777C63.2745 18.5397 63.0348 19.1491 63.0348 19.8176C63.0348 19.9356 63.0441 20.0633 63.0625 20.1715C63.0625 20.201 63.0717 20.2305 63.0717 20.26C63.0902 20.3779 63.1178 20.486 63.1455 20.5942C63.1455 20.5942 63.1455 20.5942 63.1455 20.604C63.1639 20.663 63.1823 20.722 63.21 20.7809C63.2284 20.8301 63.2469 20.8792 63.2653 20.9284C63.2653 20.9382 63.2745 20.9481 63.2745 20.9481C63.6525 21.8623 64.4914 22.4619 65.4593 22.4619Z" fill="url(#paint10_linear_271_513)"/>
<path d="M36.827 7.93286C33.1396 7.93286 30.1528 10.7836 30.1528 14.3028V21.8228H33.8125V14.6567C33.8125 12.8774 35.1584 11.4422 36.827 11.4422C38.4955 11.4422 39.8414 12.8774 39.8414 14.6567V21.8228H43.5103V14.293C43.5103 10.7836 40.5143 7.93286 36.827 7.93286Z" fill="url(#paint11_linear_271_513)"/>
<path d="M45.539 0H27.5907C24.8989 0 22.7234 2.33957 22.7234 5.2198V12.9365H29.6556H29.7663C30.4116 9.84979 33.2693 7.3726 36.6893 7.3726C40.1186 7.3726 43.2436 9.70234 43.8797 12.9365H44.0456H50.3971V5.2198C50.4063 2.33957 48.2308 0 45.539 0Z" fill="url(#paint12_linear_271_513)"/>
<defs>
<linearGradient id="paint0_linear_271_513" x1="15.4254" y1="17.7913" x2="29.7601" y2="17.7913" gradientUnits="userSpaceOnUse">
<stop offset="0.0223036" stop-color="#E7290F"/>
<stop offset="0.225" stop-color="#DF2A17"/>
<stop offset="0.7215" stop-color="#CD2B25"/>
<stop offset="1" stop-color="#C52B29"/>
</linearGradient>
<linearGradient id="paint1_linear_271_513" x1="59.0811" y1="17.7913" x2="43.8844" y2="17.7913" gradientUnits="userSpaceOnUse">
<stop offset="0.0223036" stop-color="#E7290F"/>
<stop offset="0.225" stop-color="#DF2A17"/>
<stop offset="0.7215" stop-color="#CD2B25"/>
<stop offset="1" stop-color="#C52B29"/>
</linearGradient>
<linearGradient id="paint2_linear_271_513" x1="26.3941" y1="30.2762" x2="36.4301" y2="30.2762" gradientUnits="userSpaceOnUse">
<stop offset="0.023585" stop-color="#F5C32B"/>
<stop offset="0.3823" stop-color="#F3B826"/>
<stop offset="1" stop-color="#EF9F1B"/>
</linearGradient>
<linearGradient id="paint3_linear_271_513" x1="36.9" y1="30.2762" x2="46.936" y2="30.2762" gradientUnits="userSpaceOnUse">
<stop offset="0.023585" stop-color="#F5C32B"/>
<stop offset="0.3823" stop-color="#F3B826"/>
<stop offset="1" stop-color="#EF9F1B"/>
</linearGradient>
<linearGradient id="paint4_linear_271_513" x1="20.4202" y1="30.2762" x2="25.9251" y2="30.2762" gradientUnits="userSpaceOnUse">
<stop offset="0.023585" stop-color="#F5C32B"/>
<stop offset="0.3823" stop-color="#F3B826"/>
<stop offset="1" stop-color="#EF9F1B"/>
</linearGradient>
<linearGradient id="paint5_linear_271_513" x1="47.4074" y1="30.2762" x2="52.9303" y2="30.2762" gradientUnits="userSpaceOnUse">
<stop offset="0.023585" stop-color="#F5C32B"/>
<stop offset="0.3823" stop-color="#F3B826"/>
<stop offset="1" stop-color="#EF9F1B"/>
</linearGradient>
<linearGradient id="paint6_linear_271_513" x1="20.4202" y1="24.777" x2="31.0192" y2="24.777" gradientUnits="userSpaceOnUse">
<stop offset="0.023585" stop-color="#F5C32B"/>
<stop offset="0.3823" stop-color="#F3B826"/>
<stop offset="1" stop-color="#EF9F1B"/>
</linearGradient>
<linearGradient id="paint7_linear_271_513" x1="31.3757" y1="24.777" x2="41.9747" y2="24.777" gradientUnits="userSpaceOnUse">
<stop offset="0.023585" stop-color="#F5C32B"/>
<stop offset="0.3823" stop-color="#F3B826"/>
<stop offset="1" stop-color="#EF9F1B"/>
</linearGradient>
<linearGradient id="paint8_linear_271_513" x1="42.3315" y1="24.777" x2="52.9305" y2="24.777" gradientUnits="userSpaceOnUse">
<stop offset="0.023585" stop-color="#F5C32B"/>
<stop offset="0.3823" stop-color="#F3B826"/>
<stop offset="1" stop-color="#EF9F1B"/>
</linearGradient>
<linearGradient id="paint9_linear_271_513" x1="0" y1="19.8706" x2="16.4533" y2="19.8706" gradientUnits="userSpaceOnUse">
<stop offset="0.023585" stop-color="#F5C32B"/>
<stop offset="0.3823" stop-color="#F3B826"/>
<stop offset="1" stop-color="#EF9F1B"/>
</linearGradient>
<linearGradient id="paint10_linear_271_513" x1="57.2055" y1="19.8706" x2="73.6588" y2="19.8706" gradientUnits="userSpaceOnUse">
<stop offset="0.023585" stop-color="#F5C32B"/>
<stop offset="0.3823" stop-color="#F3B826"/>
<stop offset="1" stop-color="#EF9F1B"/>
</linearGradient>
<linearGradient id="paint11_linear_271_513" x1="30.1519" y1="14.8754" x2="43.5063" y2="14.8754" gradientUnits="userSpaceOnUse">
<stop offset="0.023585" stop-color="#F5C32B"/>
<stop offset="0.3823" stop-color="#F3B826"/>
<stop offset="1" stop-color="#EF9F1B"/>
</linearGradient>
<linearGradient id="paint12_linear_271_513" x1="22.7229" y1="6.47517" x2="50.4073" y2="6.47517" gradientUnits="userSpaceOnUse">
<stop offset="0.0223036" stop-color="#E7290F"/>
<stop offset="0.225" stop-color="#DF2A17"/>
<stop offset="0.7215" stop-color="#CD2B25"/>
<stop offset="1" stop-color="#C52B29"/>
</linearGradient>
</defs>
</svg>
