<svg width="20" height="20" viewBox="0 0 20 20" fill="none" xmlns="http://www.w3.org/2000/svg">
<path fill-rule="evenodd" clip-rule="evenodd" d="M10 18.125C10.2875 18.125 11.0538 17.8425 11.8588 16.2325C12.2413 15.4675 12.5625 14.52 12.7863 13.4375H7.21375C7.4375 14.52 7.75875 15.4675 8.14125 16.2325C8.94625 17.8425 9.7125 18.125 10 18.125ZM6.9425 11.5625C6.85191 10.5228 6.85191 9.4772 6.9425 8.4375H13.0575C13.1475 9.47722 13.1475 10.5228 13.0575 11.5625H6.9425ZM14.6962 13.4375C14.4162 14.9675 13.955 16.3225 13.3637 17.3975C15.1244 16.5935 16.5421 15.19 17.3637 13.4375H14.6962ZM17.975 11.5625H14.9375C15.019 10.5224 15.019 9.47757 14.9375 8.4375H17.9737C18.176 9.46935 18.176 10.5306 17.9737 11.5625H17.975ZM5.06125 11.5625H2.025C1.82279 10.5306 1.82279 9.46935 2.025 8.4375H5.0625C4.981 9.47757 4.981 10.5224 5.0625 11.5625H5.06125ZM2.63625 13.4375H5.30375C5.58375 14.9675 6.045 16.3225 6.63625 17.3975C4.87558 16.5935 3.4579 15.19 2.63625 13.4375ZM7.21375 6.5625H12.7863C12.5625 5.48 12.2413 4.5325 11.8588 3.7675C11.0538 2.1575 10.2875 1.875 10 1.875C9.7125 1.875 8.94625 2.1575 8.14125 3.7675C7.75875 4.5325 7.4375 5.48 7.21375 6.5625ZM14.6962 6.5625H17.3637C16.5421 4.80999 15.1244 3.40649 13.3637 2.6025C13.955 3.6775 14.4162 5.0325 14.6962 6.5625ZM6.6375 2.6025C6.04625 3.6775 5.585 5.0325 5.305 6.5625H2.63625C3.4579 4.80999 4.87683 3.40649 6.6375 2.6025ZM10 0C12.6522 0 15.1957 1.05357 17.0711 2.92893C18.9464 4.8043 20 7.34784 20 10C20 12.6522 18.9464 15.1957 17.0711 17.0711C15.1957 18.9464 12.6522 20 10 20C7.34784 20 4.8043 18.9464 2.92893 17.0711C1.05357 15.1957 0 12.6522 0 10C0 7.34784 1.05357 4.8043 2.92893 2.92893C4.8043 1.05357 7.34784 0 10 0Z" fill="white"/>
</svg>
