<svg width="20" height="20" viewBox="0 0 20 20" fill="none" xmlns="http://www.w3.org/2000/svg">
<path d="M17.118 5.4502C16.9931 5.56419 16.8307 5.62823 16.6616 5.63013H0.643698C0.0750426 5.63013 -0.211506 4.98039 0.181666 4.59944L2.81281 2.06381C2.93488 1.94498 3.09783 1.87742 3.26818 1.875H19.3471C19.9213 1.875 20.2023 2.5314 19.8025 2.91346L17.118 5.4502ZM17.118 17.9506C16.9923 18.0626 16.8299 18.1246 16.6616 18.125H0.643698C0.0750426 18.125 -0.211506 17.4808 0.181666 17.101L2.81281 14.5576C2.9361 14.4416 3.0989 14.3769 3.26818 14.3765H19.3471C19.9213 14.3765 20.2023 15.0263 19.8025 15.4072L17.118 17.9506ZM17.118 8.30347C16.9923 8.1915 16.8299 8.12947 16.6616 8.1291H0.643698C0.0750426 8.1291 -0.211506 8.77328 0.181666 9.15313L2.81281 11.6965C2.9361 11.8125 3.0989 11.8772 3.26818 11.8776H19.3471C19.9213 11.8776 20.2023 11.2278 19.8025 10.8469L17.118 8.30347Z" fill="#99A1AF"/>
</svg>
