<svg width="18" height="18" viewBox="0 0 18 18" fill="none" xmlns="http://www.w3.org/2000/svg">
<path d="M2.74714 0.504936C2.6019 0.349067 2.42675 0.224049 2.23215 0.137339C2.03754 0.0506299 1.82747 0.0040053 1.61445 0.000246898C1.40144 -0.0035115 1.18985 0.0356734 0.992303 0.115464C0.79476 0.195255 0.615312 0.314016 0.464664 0.464664C0.314016 0.615312 0.195255 0.79476 0.115464 0.992302C0.0356734 1.18984 -0.00351151 1.40143 0.000246899 1.61445C0.0040053 1.82746 0.0506299 2.03754 0.13734 2.23214C0.224049 2.42675 0.349067 2.6019 0.504936 2.74714L4.9153 7.15962C5.4555 7.70007 6.09689 8.12879 6.80282 8.42129C7.50875 8.7138 8.2654 8.86435 9.02953 8.86435C9.79367 8.86435 10.5503 8.7138 11.2562 8.42129C11.9622 8.12879 12.6036 7.70007 13.1438 7.15962L17.5541 2.74819C17.8433 2.44912 18.0034 2.04845 17.9999 1.63248C17.9965 1.21651 17.8299 0.818528 17.5359 0.524245C17.2419 0.229962 16.844 0.0629277 16.4281 0.0591183C16.0121 0.0553088 15.6113 0.215029 15.3119 0.503878L10.8994 4.91636C10.6539 5.16196 10.3624 5.35679 10.0416 5.48971C9.72071 5.62263 9.37682 5.69104 9.02953 5.69104C8.68225 5.69104 8.33836 5.62263 8.01752 5.48971C7.69667 5.35679 7.40516 5.16196 7.15962 4.91636L2.7482 0.503878L2.74714 0.504936ZM2.74714 17.5541C2.4464 17.8343 2.04863 17.9869 1.63762 17.9797C1.22662 17.9724 0.834479 17.8059 0.543811 17.5152C0.253143 17.2246 0.0866453 16.8324 0.0793936 16.4214C0.072142 16.0104 0.224703 15.6127 0.504936 15.3119L4.9153 10.8994C5.4555 10.359 6.09689 9.93026 6.80282 9.63776C7.50875 9.34525 8.2654 9.1947 9.02953 9.1947C9.79367 9.1947 10.5503 9.34525 11.2562 9.63776C11.9622 9.93026 12.6036 10.359 13.1438 10.8994L17.5541 15.3109C17.8433 15.6099 18.0034 16.0106 17.9999 16.4266C17.9965 16.8425 17.8299 17.2405 17.5359 17.5348C17.2419 17.8291 16.844 17.9961 16.4281 17.9999C16.0121 18.0037 15.6113 17.844 15.3119 17.5552L10.8994 13.1427C10.6539 12.8971 10.3624 12.7023 10.0416 12.5693C9.72071 12.4364 9.37682 12.368 9.02953 12.368C8.68225 12.368 8.33836 12.4364 8.01752 12.5693C7.69667 12.7023 7.40516 12.8971 7.15962 13.1427L2.7482 17.5552L2.74714 17.5541Z" fill="#99A1AF"/>
</svg>
